<?xml version="1.0" encoding="UTF-8"?>
<!DOCTYPE svg PUBLIC "-//W3C//DTD SVG 1.1//EN" "http://www.w3.org/Graphics/SVG/1.1/DTD/svg11.dtd">
<svg xmlns="http://www.w3.org/2000/svg" version="1.1" width="512px" height="512px" style="shape-rendering:geometricPrecision; text-rendering:geometricPrecision; image-rendering:optimizeQuality; fill-rule:evenodd; clip-rule:evenodd" xmlns:xlink="http://www.w3.org/1999/xlink">
<g><path style="opacity:0.97" fill="#0076fe" d="M 238.5,233.5 C 238.195,242.917 238.528,252.25 239.5,261.5C 246.639,334.731 281.306,390.565 343.5,429C 372.225,445.767 403.225,455.267 436.5,457.5C 437.259,468.817 437.593,480.15 437.5,491.5C 364.093,487.212 303.593,457.212 256,401.5C 227.446,365.033 209.779,323.7 203,277.5C 202.501,272.177 202.334,266.844 202.5,261.5C 189.833,261.5 177.167,261.5 164.5,261.5C 164.833,252.167 165.167,242.833 165.5,233.5C 177.474,232.608 189.474,232.275 201.5,232.5C 201.5,169.167 201.5,105.833 201.5,42.5C 214.167,42.5 226.833,42.5 239.5,42.5C 239.473,106.169 239.14,169.835 238.5,233.5 Z"/></g>
<g><path style="opacity:0.946" fill="#f93111" d="M 239.5,261.5 C 238.528,252.25 238.195,242.917 238.5,233.5C 303.812,232.543 369.145,231.877 434.5,231.5C 434.5,241.167 434.5,250.833 434.5,260.5C 369.508,261.452 304.508,261.786 239.5,261.5 Z"/></g>
<g><path style="opacity:1" fill="#000000" d="M 286.5,274.5 C 297.211,273.101 304.378,277.434 308,287.5C 309.891,298.221 305.724,305.387 295.5,309C 284.779,310.891 277.613,306.724 274,296.5C 272.234,285.69 276.401,278.357 286.5,274.5 Z"/></g>
<g><path style="opacity:1" fill="#000000" d="M 329.5,342.5 C 340.211,341.101 347.378,345.434 351,355.5C 352.891,366.221 348.724,373.387 338.5,377C 327.779,378.891 320.613,374.724 317,364.5C 315.234,353.69 319.401,346.357 329.5,342.5 Z"/></g>
<g><path style="opacity:1" fill="#000000" d="M 396.5,391.5 C 407.211,390.101 414.378,394.434 418,404.5C 419.891,415.221 415.724,422.387 405.5,426C 394.779,427.891 387.613,423.724 384,413.5C 382.234,402.69 386.401,395.357 396.5,391.5 Z"/></g>
</svg>
